<svg xmlns="http://www.w3.org/2000/svg" width="300" height="300" viewBox="0 0 300 300"><style>.bg{fill:#ff7369}.letter{fill:#fff}@media (prefers-color-scheme:dark){.bg{fill:#191919}.letter{fill:#ff7369}}</style><rect width="300" height="300" class="bg"/><path d="M146.659 230H98C92.4772 230 88 225.523 88 220V80C88 74.4772 92.4772 70 98 70H146.581C162.751 70 176.673 73.2031 188.348 79.6094C200.074 85.9635 209.115 95.1302 215.469 107.109C221.823 119.036 225 133.307 225 149.922C225 166.589 221.823 180.911 215.469 192.891C209.166 204.87 200.152 214.063 188.425 220.469C176.699 226.823 162.777 230 146.659 230ZM126.357 197.031H145.187C154.072 197.031 161.588 195.521 167.736 192.5C173.935 189.427 178.61 184.453 181.761 177.578C184.964 170.651 186.566 161.432 186.566 149.922C186.566 138.411 184.964 129.245 181.761 122.422C178.558 115.547 173.832 110.599 167.581 107.578C161.382 104.505 153.736 102.969 144.644 102.969H126.357V197.031Z" class="letter"/></svg>