<svg width="2500" height="2500" viewBox="0 0 2500 2500" fill="none" xmlns="http://www.w3.org/2000/svg">
<path d="M524 2353L155.5 262.5L1716 68.5L2350 508.5V2244.5L524 2353Z" fill="white" stroke="black"/>
<path fill-rule="evenodd" clip-rule="evenodd" d="M468.479 444.905C545.836 507.754 574.856 502.959 720.122 493.266L2089.6 411.036C2118.64 411.036 2094.49 382.06 2084.8 377.245L1857.36 212.823C1813.78 178.988 1755.72 140.241 1644.44 149.934L318.378 246.653C270.016 251.448 260.358 275.629 279.616 295.01L468.479 444.905ZM550.7 764.061V2204.99C550.7 2282.43 589.398 2311.4 676.497 2306.61L2181.55 2219.52C2268.69 2214.73 2278.4 2161.46 2278.4 2098.55V667.298C2278.4 604.492 2254.24 570.624 2200.89 575.458L628.101 667.298C570.056 672.176 550.7 701.211 550.7 764.061ZM2036.48 841.354C2046.13 884.916 2036.48 928.439 1992.84 933.337L1920.32 947.786V2011.57C1857.36 2045.41 1799.3 2064.75 1750.92 2064.75C1673.46 2064.75 1654.06 2040.56 1596.04 1968.07L1121.7 1223.41V1943.89L1271.8 1977.76C1271.8 1977.76 1271.8 2064.75 1150.7 2064.75L816.855 2084.12C807.158 2064.75 816.855 2016.44 850.719 2006.76L937.838 1982.62V1030.01L816.88 1020.32C807.177 976.757 831.339 913.946 899.14 909.073L1257.28 884.931L1750.92 1639.28V971.961L1625.06 957.518C1615.4 904.263 1654.06 865.594 1702.46 860.799L2036.48 841.354ZM207.039 116.104L1586.36 14.5271C1755.74 -4.07312e-05 1799.32 9.732 1905.78 87.0648L2346.08 396.528C2418.73 449.744 2442.94 464.232 2442.94 522.242V2219.52C2442.94 2325.89 2404.19 2388.8 2268.72 2398.42L666.912 2495.15C565.212 2500 516.811 2485.51 463.551 2417.77L139.311 1997.08C81.2177 1919.64 57.0564 1861.71 57.0564 1793.94V285.282C57.0564 198.296 95.8182 125.734 207.039 116.104Z" fill="black"/>
</svg>
